PathFileType	4	(X/Y/Z)	s11c0403.trc
DataRate	CameraRate	NumFrames	NumMarkers	Units	OrigDataRate	OrigDataStartFrame	OrigNumFrames
200	200	7	48	mm	200	1250	2000
Frame#	Time	racr			lacr			c7			jug			rlel			rdr			llel			ldr			s2			lic			ric			lasi			rasi			rpsi			lpsi			rgt			lgt			rth1			rth2			rth3			rth4			rlfc			rmfc			rsh1			rsh2			rsh3			rsh4			rlmal			rcal			rtoe			rmt5			lth1			lth2			lth4			lth3			llfc			lmfc			llmal			lcal			lmt5			lsh1			lsh2			lsh3			lsh4			ltoe			SBIKE			LBIKE			RBIKE			
		X1	Y1	Z1	X2	Y2	Z2	X3	Y3	Z3	X4	Y4	Z4	X5	Y5	Z5	X6	Y6	Z6	X7	Y7	Z7	X8	Y8	Z8	X9	Y9	Z9	X10	Y10	Z10	X11	Y11	Z11	X12	Y12	Z12	X13	Y13	Z13	X14	Y14	Z14	X15	Y15	Z15	X16	Y16	Z16	X17	Y17	Z17	X18	Y18	Z18	X19	Y19	Z19	X20	Y20	Z20	X21	Y21	Z21	X22	Y22	Z22	X23	Y23	Z23	X24	Y24	Z24	X25	Y25	Z25	X26	Y26	Z26	X27	Y27	Z27	X28	Y28	Z28	X29	Y29	Z29	X30	Y30	Z30	X31	Y31	Z31	X32	Y32	Z32	X33	Y33	Z33	X34	Y34	Z34	X35	Y35	Z35	X36	Y36	Z36	X37	Y37	Z37	X38	Y38	Z38	X39	Y39	Z39	X40	Y40	Z40	X41	Y41	Z41	X42	Y42	Z42	X43	Y43	Z43	X44	Y44	Z44	X45	Y45	Z45	X46	Y46	Z46	X47	Y47	Z47	X48	Y48	Z48	
1250	6.2500	821.410880	1354.401403	-119.553572	765.726319	1392.523619	-476.262561	773.977631	1492.621353	-285.883536	768.126301	1310.057708	-306.080089	632.046889	1169.689766	13.508144	784.763149	977.601059	-77.927876	565.225545	1165.453571	-589.929156	770.037314	957.064881	-483.692761	194.761476	1290.521040	-207.650705	370.484277	1316.913980	-440.050807	438.767593	1251.842077	-41.864057	396.164288	1230.346953	-416.656468	460.245707	1193.679439	-87.330772	250.683324	1355.393629	-151.074101	235.313406	1361.586941	-240.659288	336.085800	1106.515030	-22.522751	288.351260	1190.148882	-444.927249	387.606286	978.587470	-24.064884	433.957385	904.483820	-43.197768	436.999298	818.247268	-61.518346	466.119270	917.307034	-55.539995	461.071290	717.691536	-82.390314	460.777754	699.938755	-206.096998	346.156650	603.067799	-64.705168	301.199478	528.783010	-83.064435	226.909631	483.913195	-81.542420	321.311137	513.671930	-113.623680	123.777489	397.599996	-91.198408	81.567735	444.660870	-141.166628	188.866715	177.371898	-148.857026	132.625462	223.740095	-77.597945	401.226435	1089.370805	-467.119629	476.437963	1049.655785	-463.988042	499.674427	1074.778745	-456.547541	524.268373	973.242837	-465.222118	623.902356	869.570645	-448.221444	642.536008	859.000744	-317.934324	361.406408	522.118909	-421.397458	290.454446	513.281439	-385.717504	440.445938	370.399238	-456.034320	550.670251	768.890268	-462.703124	522.751816	688.249492	-449.723890	456.789481	629.979264	-443.103266	551.106732	672.481953	-428.558615	534.416467	341.453745	-390.402728	-176.837113	972.278792	-171.199116	-17.831047	81.389264	-460.819483	-17.762012	81.497458	-62.037172	
1251	6.2550	821.766891	1354.985702	-120.203791	766.710122	1391.963547	-476.600945	774.826124	1492.633428	-286.421914	768.300552	1309.675785	-306.070686	632.881694	1170.005521	13.195760	784.660494	977.435273	-78.182974	564.462704	1165.373368	-589.528157	770.394313	957.434975	-483.799614	195.335580	1291.539920	-208.197463	370.983719	1315.662899	-440.380719	438.822929	1253.729213	-41.582399	396.598067	1228.787418	-416.881019	460.472723	1195.127504	-86.910640	251.001816	1356.020215	-152.346236	235.750848	1362.220220	-241.301206	337.604058	1107.934697	-22.257881	286.946835	1188.814158	-444.293253	391.826626	980.377087	-24.280952	439.174973	906.850288	-43.612604	443.686261	820.937774	-61.899135	471.102142	920.148162	-55.940851	468.602827	720.138311	-83.780028	467.522479	703.038974	-207.486213	352.143217	606.982920	-65.184842	305.388584	533.702068	-83.518840	230.332122	490.541969	-81.545224	324.803896	518.595699	-114.443270	124.768148	406.935891	-90.766341	83.479024	454.940882	-140.819929	184.652912	185.370354	-148.882941	129.557264	232.825766	-77.608129	397.683262	1086.143145	-466.483273	472.222221	1045.155006	-463.799810	496.164507	1069.865682	-456.507689	518.604457	967.907109	-465.148040	617.090566	861.060257	-447.538581	635.620792	850.310021	-317.847482	358.242115	509.595187	-420.571484	287.158776	498.380987	-385.223820	441.959680	360.942104	-456.397347	544.306712	758.717655	-462.470336	517.330534	677.995492	-449.582183	452.274104	618.699767	-442.471800	545.826003	662.834715	-428.329955	537.015682	335.140914	-390.794696	-176.802351	972.282681	-171.070078	-17.857228	81.352325	-460.808300	-17.792849	81.453800	-62.004588	
1252	6.2600	822.050409	1355.572936	-120.685008	767.720408	1391.380468	-476.620398	775.525241	1492.626865	-286.849202	768.587901	1309.421174	-305.895505	633.741556	1170.387920	13.015330	784.577780	977.357415	-78.544770	563.616143	1165.508174	-589.115473	770.296492	957.792299	-484.027113	195.983985	1292.303880	-208.754573	371.487180	1313.630711	-440.738157	439.037963	1255.675028	-41.277158	397.168625	1226.842984	-417.142213	460.521862	1196.257832	-86.453897	251.691500	1356.571542	-154.137913	236.683676	1362.545853	-242.653804	339.193634	1109.319339	-22.057425	285.596856	1187.344431	-443.724321	395.971099	981.952983	-24.524002	444.237404	909.133813	-44.043096	449.872167	823.403501	-62.493509	475.939672	922.913428	-56.390848	476.090108	722.699221	-84.416672	473.856305	706.321953	-209.037136	358.156737	611.106026	-65.637107	309.649283	539.124600	-84.041795	233.570385	497.471804	-81.680371	328.313223	523.621924	-115.268766	125.794051	416.624068	-90.539032	85.454688	465.465995	-140.628123	181.081421	193.856793	-148.948982	127.013521	242.365347	-77.658418	394.177916	1082.590069	-465.673144	468.000707	1040.191453	-463.579809	492.150617	1064.394599	-456.745659	512.895592	962.018471	-465.071662	609.707048	851.959695	-446.862573	628.212382	840.877166	-317.628274	354.500915	496.677220	-419.658910	283.541406	483.127542	-384.503434	442.673572	351.178417	-456.861812	537.422459	747.949926	-462.411296	511.454361	667.015399	-449.010584	447.164678	606.793413	-441.864452	540.065977	652.222763	-427.614109	538.850488	328.785725	-391.755671	-176.771387	972.268873	-170.973455	-17.896028	81.347241	-460.767171	-17.830467	81.411800	-61.987893	
1253	6.2650	822.222080	1356.382880	-121.051140	768.612139	1390.653611	-476.600818	776.211373	1492.773629	-287.207524	769.022051	1309.284596	-305.455272	634.627599	1170.721180	13.017682	784.476906	977.341239	-79.064040	562.753286	1165.898719	-588.769324	769.713539	958.057717	-484.351838	196.614041	1292.797652	-209.089908	372.168018	1311.239108	-441.140224	439.016395	1257.256288	-41.254443	397.911392	1224.434039	-417.211819	460.444451	1197.388390	-86.101419	258.018797	1355.072002	-159.400990	237.697876	1362.480274	-244.134239	340.664195	1110.347426	-22.623409	284.399091	1185.374248	-443.112930	400.018387	983.586516	-24.694580	449.292645	911.437131	-44.451979	455.910464	825.813600	-63.028057	480.623330	925.542828	-56.874611	483.813425	725.450640	-85.182467	479.915482	709.637561	-210.427659	364.180799	615.348438	-66.245074	314.116213	544.691027	-83.801642	236.962081	504.565887	-81.789844	331.919910	528.718723	-115.989327	126.853671	426.504668	-90.526525	87.417834	476.041209	-140.606384	178.340994	202.781976	-149.050067	125.049677	252.442761	-77.698726	390.847327	1078.571856	-464.809651	463.602262	1034.480866	-463.818564	490.922370	1058.979816	-456.340813	507.059493	955.671230	-465.007979	601.649353	842.429421	-446.059220	620.286458	830.936424	-317.412587	350.317241	483.316031	-418.583118	279.745927	467.618283	-383.695063	442.767839	340.976527	-457.209178	530.222154	736.516043	-462.038727	505.076974	655.615587	-448.533917	441.587110	594.489100	-441.309815	533.815089	641.308835	-426.991520	540.052438	321.481459	-392.334726	-176.780652	972.201915	-171.074598	-17.883275	81.258234	-460.776205	-17.834286	81.380077	-61.983655	
1254	6.2700	822.363378	1357.212044	-121.101013	769.541765	1389.800322	-476.438125	776.760270	1493.010978	-287.496588	769.590647	1309.248934	-304.891015	635.398666	1171.012492	13.065411	784.428863	977.165598	-79.477437	561.812121	1166.382231	-588.470282	768.850423	958.170474	-484.796586	197.338425	1293.015360	-209.576474	372.853397	1308.144482	-441.413921	438.978967	1258.554615	-41.258003	398.915533	1221.579035	-417.151287	460.335863	1197.964191	-85.868361	251.934251	1358.186194	-156.172025	238.754221	1362.099441	-245.733502	342.342999	1111.497387	-22.339796	283.305575	1183.116428	-442.378749	403.947225	985.078757	-24.897645	454.027456	913.662320	-44.996022	461.819738	828.113278	-63.213484	485.174760	928.172288	-57.425903	491.573963	728.105459	-85.524555	485.734496	712.898238	-211.717470	370.156062	619.694838	-66.840712	318.864793	550.132701	-84.062940	240.280472	511.956716	-82.026814	336.742354	534.361323	-116.234291	128.191492	436.585459	-90.774362	89.510614	486.782890	-140.904329	176.441854	212.091000	-148.982494	123.980966	262.476719	-77.755197	387.709755	1074.145454	-463.942206	459.738308	1028.693629	-463.184062	487.725533	1052.612979	-456.211179	501.182022	948.758906	-464.514601	592.970153	832.415850	-445.128017	612.173757	820.545857	-316.442561	345.832871	469.901810	-417.530399	275.786251	452.187744	-382.999687	442.232817	330.532246	-457.537191	522.613424	724.907768	-461.737139	498.370557	643.894585	-447.745628	435.774948	581.812568	-440.729291	527.212342	629.985598	-426.036000	540.380922	313.611113	-392.957935	-176.882860	972.056436	-171.334443	-17.891996	81.198681	-460.796578	-17.851126	81.375365	-61.968160	
1255	6.2750	822.455138	1358.223731	-121.009296	770.454051	1389.074026	-476.365065	777.242083	1493.212464	-287.611311	770.218843	1309.389195	-304.254622	636.205247	1171.309464	13.159083	784.392356	976.968598	-80.074208	560.968114	1166.934120	-588.200096	767.800352	958.125999	-485.276556	197.905491	1293.028030	-209.884628	373.737021	1304.913487	-441.759282	438.769112	1259.602797	-41.501928	399.989837	1218.493482	-417.045861	460.179371	1198.590400	-85.737632	258.693240	1355.806816	-161.623528	238.998671	1361.731006	-246.510687	344.051209	1112.528811	-22.091098	282.368797	1180.334439	-441.677411	407.784295	986.423942	-25.140088	458.784524	915.835845	-45.480754	467.727982	830.334959	-63.648344	489.673379	930.871780	-58.070527	499.586886	730.717676	-85.699365	491.373252	716.144026	-212.805408	376.176915	624.041080	-67.512885	323.211103	555.752056	-84.640220	243.604759	519.623260	-82.568172	340.545580	539.563365	-116.949644	129.786957	446.771961	-91.190282	91.841208	497.559375	-141.281908	175.293494	221.635592	-149.056189	123.467149	272.956465	-77.819628	384.748500	1069.163636	-462.738874	455.700007	1022.176548	-462.545528	484.354007	1045.470146	-456.281213	495.300025	941.310777	-463.897728	583.652926	821.999635	-444.094838	603.136765	809.849635	-316.206616	341.346943	456.354654	-416.444203	271.972552	437.206242	-382.454551	441.208580	319.873467	-457.887712	514.364439	713.315887	-461.860586	491.416696	631.901090	-447.049608	429.806296	568.877073	-440.145973	520.412425	618.455434	-425.068941	540.050989	305.249039	-393.405238	-176.899576	971.949750	-171.617893	-17.898999	81.084709	-460.848101	-17.868449	81.341281	-61.969032	
1256	6.2800	822.564147	1359.253744	-120.612204	771.391761	1388.159397	-476.219224	777.721029	1493.546332	-287.710316	770.990853	1309.661743	-303.561233	636.941083	1171.622274	13.277488	784.326653	976.691033	-80.837688	560.207315	1167.549421	-587.947599	766.689072	957.974551	-485.817667	198.484783	1292.714160	-210.327335	374.633083	1301.334542	-442.117912	438.712851	1260.466913	-41.641373	401.274993	1215.252151	-416.844408	460.065474	1198.943660	-85.205352	259.036828	1355.596156	-162.886279	240.595861	1360.744599	-248.641166	345.734267	1113.350413	-21.905017	281.634171	1177.321717	-441.048960	411.713939	987.976954	-25.264659	463.536924	918.112660	-46.044138	473.624722	832.743496	-63.958308	494.079211	933.601517	-58.890301	508.173312	733.360400	-85.676128	496.671127	719.438243	-214.002989	382.254376	628.413414	-68.210542	327.630285	561.381927	-85.212527	247.143649	527.158186	-82.949260	344.565578	544.716142	-117.466869	131.912835	457.099946	-91.638887	94.493046	508.160843	-141.726331	175.053096	231.564974	-149.097960	123.763212	283.428584	-77.950138	381.905653	1063.950893	-461.928494	451.739696	1015.257743	-462.139021	481.021526	1037.940035	-456.236706	489.380958	933.315990	-462.937115	573.831429	811.287901	-443.007585	593.518562	798.673321	-315.934282	336.927228	442.917191	-415.597488	268.127517	422.643184	-382.314714	439.872082	309.090359	-457.978610	505.837400	701.426248	-461.456291	484.320485	619.754723	-446.130601	423.741256	555.672397	-439.533619	513.358909	606.883595	-424.048095	539.029138	296.377941	-393.498353	-176.900015	971.965952	-171.677220	-17.890291	81.017542	-460.855733	-17.865127	81.285445	-61.986984	
